<?xml version="1.0" encoding="UTF-8" ?>
<!DOCTYPE svg PUBLIC "-//W3C//DTD SVG 1.1//EN" "http://www.w3.org/Graphics/SVG/1.1/DTD/svg11.dtd">
<svg width="1608pt" height="622pt" viewBox="0 0 1608 622" version="1.1" xmlns="http://www.w3.org/2000/svg">
<path fill="#fefffe" d=" M 0.00 0.00 L 1608.00 0.00 L 1608.00 622.00 L 0.00 622.00 L 0.00 0.00 Z" />
<path fill="#94f048" d=" M 875.74 75.45 C 878.03 74.59 880.20 75.08 882.01 76.71 C 882.41 86.67 885.58 96.86 882.56 106.68 C 881.11 111.05 878.41 115.15 878.48 119.90 C 878.82 130.56 874.66 140.93 868.59 149.55 C 865.16 154.75 859.44 158.95 853.01 158.97 C 848.96 159.01 844.39 159.46 840.97 156.87 C 841.09 155.77 841.25 154.69 841.47 153.61 C 849.67 153.36 859.02 152.24 864.81 145.76 C 867.68 142.76 868.94 138.71 870.21 134.86 C 867.12 138.78 863.91 142.80 859.70 145.58 C 854.58 148.12 848.95 149.61 843.28 150.25 C 834.12 151.42 824.95 153.18 816.34 156.59 C 812.41 158.67 808.86 161.57 806.16 165.10 C 804.20 168.19 802.56 171.49 800.38 174.45 C 806.14 172.97 812.05 172.11 817.97 171.68 C 825.37 172.28 832.95 173.03 839.81 176.10 C 848.75 180.25 856.54 187.11 860.93 196.03 C 866.92 206.23 868.98 218.29 868.42 229.99 C 869.17 246.54 864.19 264.29 851.67 275.73 C 847.51 280.22 841.90 282.93 836.39 285.39 C 817.99 292.13 795.90 287.98 781.60 274.43 C 776.69 268.91 772.44 262.64 770.42 255.46 C 764.32 238.43 764.80 219.25 771.14 202.36 C 773.22 196.54 776.94 191.51 780.84 186.79 C 783.89 183.33 787.92 180.95 791.73 178.42 C 791.69 177.78 791.61 176.51 791.57 175.87 C 798.37 167.44 803.57 156.66 813.92 152.01 C 818.95 149.48 825.01 149.62 829.87 146.78 C 830.36 140.05 829.34 133.17 831.27 126.59 C 831.96 120.15 835.55 114.57 839.94 110.00 C 846.65 100.46 858.81 97.72 867.49 90.54 C 869.75 88.07 872.08 85.67 874.26 83.12 C 876.36 81.14 875.44 78.00 875.74 75.45 Z" />
<path fill="#94f048" d=" M 171.94 132.04 C 182.41 128.98 193.17 126.93 204.05 126.08 C 212.03 126.00 220.01 126.05 228.00 126.05 C 237.76 126.70 247.44 128.44 256.91 130.92 C 294.70 140.97 328.48 166.07 348.06 200.06 C 358.29 217.90 365.74 237.58 368.20 258.08 C 369.47 266.32 368.69 274.68 368.91 282.98 C 367.12 314.50 353.59 344.97 332.22 368.10 C 329.52 371.74 326.20 374.85 322.62 377.61 C 311.95 387.69 299.43 395.61 286.32 402.13 C 274.19 408.17 261.05 411.74 247.90 414.75 C 238.04 416.63 228.02 417.88 217.97 417.42 C 183.28 418.88 148.79 406.42 121.42 385.41 C 98.77 367.56 81.00 343.16 72.38 315.54 C 68.82 305.38 66.92 294.72 65.78 284.05 C 65.61 276.34 65.76 268.62 65.72 260.91 C 68.24 228.02 82.59 196.19 105.54 172.50 C 123.57 153.46 146.89 139.62 171.94 132.04 Z" />
<path fill="#94f048" d=" M 443.49 128.29 C 446.81 127.21 450.05 128.96 453.17 129.90 C 454.95 133.69 456.05 137.75 456.87 141.85 C 460.27 154.24 463.46 166.68 466.88 179.06 C 472.62 202.95 480.47 226.35 484.35 250.65 C 485.38 256.45 486.26 262.27 487.30 268.06 C 487.97 266.45 488.45 264.76 488.71 263.03 C 490.47 250.55 493.01 238.18 495.98 225.94 C 499.50 213.87 501.85 201.49 505.55 189.48 C 508.02 179.96 510.09 170.34 512.84 160.90 C 515.25 152.26 516.90 143.39 519.79 134.88 C 520.83 131.27 524.24 129.05 527.80 128.44 C 534.57 126.26 543.13 130.12 544.53 137.46 C 551.43 164.55 558.57 191.59 565.39 218.70 C 570.45 234.90 572.22 251.83 575.37 268.45 C 578.06 257.71 579.54 246.72 581.83 235.89 C 590.30 202.51 599.57 169.33 608.10 135.97 C 608.92 133.20 609.95 129.78 613.16 129.02 C 616.75 127.21 620.87 128.03 624.39 129.59 C 627.41 130.97 629.02 134.74 627.97 137.90 C 618.27 172.45 608.32 206.93 598.71 241.51 C 594.90 253.63 591.97 266.03 588.14 278.14 C 585.21 287.80 570.85 289.59 564.64 282.24 C 563.06 280.49 562.62 278.09 562.00 275.90 C 558.92 262.50 554.83 249.35 551.80 235.93 C 547.35 216.73 541.67 197.84 537.52 178.57 C 535.30 167.65 533.97 156.58 531.88 145.65 C 529.04 160.70 526.99 175.93 522.84 190.71 C 517.42 212.24 511.45 233.63 506.00 255.16 C 503.57 263.08 502.06 271.27 499.43 279.14 C 498.34 282.92 494.88 285.35 491.21 286.25 C 486.29 287.90 480.96 285.99 476.97 283.05 C 474.17 279.86 473.47 275.49 472.33 271.54 C 461.26 231.02 450.12 190.52 438.95 150.04 C 437.67 145.05 435.68 140.14 435.52 134.95 C 435.80 130.90 439.92 128.84 443.49 128.29 Z" />
<path fill="#94f048" d=" M 976.02 128.93 C 979.20 127.14 982.81 128.42 986.17 128.83 C 987.39 130.68 989.03 132.54 988.88 134.92 C 988.93 182.94 988.87 230.97 988.92 278.99 C 989.04 281.55 988.17 284.60 985.43 285.41 C 982.23 287.24 978.53 286.87 975.18 285.75 C 973.83 283.99 972.07 282.37 971.61 280.13 C 970.96 275.52 972.51 271.00 972.52 266.40 C 968.58 271.20 965.76 277.02 960.48 280.58 C 953.40 286.58 943.90 288.05 934.95 288.63 C 922.14 288.34 909.07 283.19 900.90 273.05 C 890.38 259.88 887.13 242.41 887.55 225.94 C 888.41 216.65 889.47 207.08 893.69 198.61 C 898.64 187.70 907.69 178.05 919.38 174.52 C 924.73 172.74 930.40 172.03 936.01 171.69 C 941.27 172.09 946.56 172.97 951.60 174.57 C 961.01 178.27 968.07 186.09 972.46 195.03 C 972.94 187.63 970.93 180.36 971.52 172.96 C 971.55 161.30 971.52 149.64 971.51 137.98 C 971.41 134.52 972.49 130.36 976.02 128.93 Z" />
<path fill="#94f048" d=" M 1019.07 134.89 C 1018.59 129.94 1024.02 128.15 1027.99 127.86 C 1031.76 128.35 1036.94 130.26 1036.40 134.98 C 1036.41 182.64 1036.38 230.30 1036.41 277.96 C 1036.38 280.10 1035.89 282.20 1035.43 284.29 C 1032.06 285.60 1028.42 287.81 1024.74 286.26 C 1021.73 285.60 1018.77 283.44 1019.08 280.02 C 1019.02 231.65 1019.04 183.27 1019.07 134.89 Z" />
<path fill="#94f048" d=" M 1380.48 131.51 C 1383.66 128.82 1387.95 126.76 1392.12 128.51 C 1395.75 128.92 1397.34 132.75 1397.10 136.00 C 1397.08 179.34 1397.10 222.67 1397.09 266.00 C 1396.89 272.21 1397.83 278.57 1395.99 284.61 C 1391.70 286.34 1386.30 288.27 1382.43 284.58 C 1377.16 279.81 1380.92 272.32 1380.66 266.32 C 1376.16 273.43 1370.84 280.42 1363.14 284.27 C 1347.13 291.63 1326.73 289.45 1313.42 277.61 C 1304.74 269.65 1299.60 258.40 1297.47 246.95 C 1296.01 238.07 1294.79 228.98 1296.40 220.02 C 1297.50 207.03 1302.02 193.79 1311.53 184.53 C 1319.90 175.25 1332.89 171.97 1344.96 171.70 C 1352.68 172.60 1360.90 173.66 1367.17 178.69 C 1373.22 182.59 1377.23 188.73 1380.51 194.99 C 1380.97 189.97 1380.19 185.00 1379.70 180.02 C 1379.62 167.02 1379.75 154.02 1379.65 141.01 C 1379.58 137.82 1380.00 134.66 1380.48 131.51 Z" />
<path fill="#5f605e" d=" M 155.45 153.99 C 189.32 137.55 229.76 135.57 265.16 148.27 C 282.27 155.00 298.74 164.01 312.10 176.81 C 326.22 189.68 337.53 205.65 344.63 223.41 C 350.57 237.16 352.72 252.16 353.88 266.98 C 354.30 273.46 353.05 279.87 352.46 286.30 C 349.81 309.12 339.92 330.76 325.70 348.68 C 318.14 357.70 309.51 365.80 300.40 373.23 C 261.86 401.33 208.88 407.64 164.71 389.83 C 145.41 381.83 127.58 369.97 113.67 354.29 C 96.62 335.77 85.59 311.99 81.90 287.13 C 80.92 278.43 79.70 269.64 81.05 260.91 C 81.89 247.06 85.68 233.57 90.89 220.78 C 103.32 191.57 127.17 168.03 155.45 153.99 Z" />
<path fill="#b5bd84" d=" M 265.16 148.27 C 266.96 148.60 268.79 148.93 270.52 149.56 C 300.60 161.27 326.58 183.82 341.38 212.61 C 347.35 225.08 352.13 238.25 354.18 251.97 C 360.02 291.68 345.05 333.45 316.06 361.03 C 311.26 365.57 306.51 370.48 300.40 373.23 C 309.51 365.80 318.14 357.70 325.70 348.68 C 339.92 330.76 349.81 309.12 352.46 286.30 C 353.05 279.87 354.30 273.46 353.88 266.98 C 352.72 252.16 350.57 237.16 344.63 223.41 C 337.53 205.65 326.22 189.68 312.10 176.81 C 298.74 164.01 282.27 155.00 265.16 148.27 Z" />
<path fill="#b5bd84" d=" M 141.64 160.82 C 146.05 158.20 150.40 155.26 155.45 153.99 C 127.17 168.03 103.32 191.57 90.89 220.78 C 85.68 233.57 81.89 247.06 81.05 260.91 C 79.70 269.64 80.92 278.43 81.90 287.13 C 85.59 311.99 96.62 335.77 113.67 354.29 C 127.58 369.97 145.41 381.83 164.71 389.83 C 162.20 389.27 159.74 388.52 157.42 387.42 C 131.30 375.56 108.75 355.47 94.91 330.25 C 80.13 303.83 75.44 271.81 82.36 242.32 C 89.91 208.53 112.24 178.82 141.64 160.82 Z" />
<path fill="#94f048" d=" M 239.44 154.83 C 241.04 154.13 243.30 153.90 244.48 155.47 C 248.22 159.99 248.21 166.22 250.39 171.47 C 253.05 178.00 253.39 185.19 252.51 192.11 C 250.98 202.34 253.56 213.00 250.11 222.95 C 248.16 228.59 246.77 234.96 242.07 239.05 C 236.75 244.17 228.87 245.70 221.76 244.43 C 221.33 243.71 220.47 242.27 220.04 241.55 C 226.15 237.95 233.28 236.26 238.95 231.91 C 243.14 228.02 244.59 222.22 245.90 216.87 C 243.86 221.28 242.27 226.32 238.02 229.15 C 233.38 232.33 228.38 235.11 222.98 236.74 C 214.81 238.97 207.23 242.90 199.72 246.75 C 193.82 249.73 189.79 255.39 187.26 261.34 C 186.65 263.17 186.36 265.29 186.98 267.15 C 189.25 269.99 192.57 271.70 195.56 273.67 C 194.75 268.93 193.85 264.20 193.09 259.46 C 194.84 258.28 196.73 256.97 198.96 257.33 C 203.78 257.69 208.33 259.48 212.97 260.71 C 220.41 263.06 227.12 267.97 231.68 274.30 C 234.39 280.18 233.55 287.40 229.37 292.40 C 223.24 294.11 216.57 295.59 210.52 292.73 C 207.88 291.72 205.18 290.90 202.46 290.16 C 196.66 288.50 191.92 284.38 188.10 279.85 C 185.73 277.00 182.60 274.76 180.75 271.51 C 179.29 266.49 180.79 261.14 183.39 256.77 C 186.76 250.31 191.71 244.32 198.51 241.34 C 201.96 239.77 205.38 238.10 208.73 236.33 C 206.06 224.47 203.16 211.41 208.82 199.93 C 216.46 185.96 233.50 179.73 239.76 164.74 C 240.40 161.48 239.31 158.13 239.44 154.83 Z" />
<path fill="#94f048" d=" M 660.04 186.02 C 675.28 171.20 699.56 168.09 718.81 176.31 C 723.61 178.53 727.88 181.77 731.79 185.30 C 739.10 192.92 743.53 202.92 745.89 213.12 C 747.34 219.34 746.86 225.74 746.95 232.06 C 746.97 235.59 747.01 239.13 746.50 242.63 C 745.74 249.38 743.18 255.73 740.66 261.97 C 733.55 276.20 719.05 286.88 703.02 288.06 C 696.76 289.05 690.48 291.75 684.07 290.04 C 679.26 288.65 674.19 288.13 669.22 288.83 C 667.04 289.53 665.39 291.22 663.59 292.55 C 662.55 293.63 661.47 294.67 660.36 295.69 C 659.79 296.69 659.24 297.70 658.69 298.72 C 659.64 298.66 661.54 298.55 662.49 298.49 C 663.42 299.66 664.34 300.85 665.25 302.05 C 670.83 305.77 677.81 305.85 683.59 309.08 C 688.28 312.12 693.06 315.03 697.51 318.43 C 698.90 321.37 700.53 324.19 702.31 326.93 C 702.31 331.40 702.25 336.47 698.95 339.92 C 696.97 341.99 694.94 344.43 692.04 345.13 C 682.12 345.54 671.62 346.12 662.55 341.34 C 657.85 338.51 654.13 334.41 651.22 329.80 C 645.92 323.01 645.90 313.83 646.75 305.66 C 649.34 294.45 658.98 286.16 668.91 281.22 C 660.57 276.24 654.24 268.44 650.38 259.60 C 643.28 242.46 642.93 222.87 648.55 205.28 C 650.86 198.09 655.08 191.66 660.04 186.02 Z" />
<path fill="#94f048" d=" M 1096.17 173.10 C 1102.94 172.32 1109.79 170.87 1116.60 172.18 C 1125.29 172.87 1134.52 174.77 1141.09 180.93 C 1148.44 187.36 1150.13 197.70 1150.55 206.97 C 1150.55 226.63 1150.58 246.30 1150.51 265.97 C 1150.55 271.70 1152.42 277.22 1152.56 282.94 C 1148.29 287.67 1141.35 287.69 1135.99 284.94 C 1134.53 280.75 1133.84 276.35 1134.00 271.92 C 1126.13 280.32 1115.67 286.75 1104.02 287.80 C 1095.03 289.53 1085.58 288.42 1077.17 284.88 C 1069.95 281.09 1063.57 274.73 1061.49 266.66 C 1058.76 256.33 1059.60 244.59 1065.61 235.54 C 1070.84 227.42 1079.85 222.74 1088.84 219.97 C 1095.09 218.14 1101.51 216.82 1108.01 216.31 C 1116.35 214.99 1124.85 216.07 1133.17 214.39 C 1133.15 207.13 1134.33 198.87 1129.19 192.90 C 1123.80 187.08 1115.38 186.86 1108.04 187.21 C 1100.25 186.70 1091.88 189.75 1087.42 196.39 C 1085.31 199.78 1083.68 203.47 1081.02 206.49 C 1076.36 206.70 1071.45 206.76 1067.74 203.49 C 1066.96 201.97 1066.17 200.46 1065.38 198.97 C 1069.37 185.31 1082.24 175.13 1096.17 173.10 Z" />
<path fill="#94f048" d=" M 1220.81 174.08 C 1228.69 172.06 1237.00 170.71 1245.03 172.82 C 1256.29 174.14 1266.16 182.65 1269.64 193.35 C 1272.23 199.93 1272.15 207.08 1272.91 214.01 C 1272.95 230.01 1272.91 246.01 1272.92 262.01 C 1272.84 269.06 1273.41 276.19 1271.91 283.15 C 1269.08 285.14 1265.78 287.20 1262.17 286.73 C 1258.75 286.05 1254.22 284.39 1254.64 280.08 C 1254.53 257.71 1254.67 235.34 1254.59 212.97 C 1254.17 205.56 1252.61 197.37 1246.54 192.41 C 1240.99 187.35 1233.00 187.87 1226.05 188.34 C 1216.03 190.03 1207.75 197.25 1202.68 205.79 C 1198.96 211.82 1198.41 219.08 1198.03 225.97 C 1198.07 244.64 1197.99 263.31 1198.08 281.99 C 1194.84 285.93 1189.30 287.04 1184.64 285.22 C 1181.83 284.05 1180.41 280.91 1180.63 277.99 C 1180.66 245.30 1180.63 212.61 1180.65 179.93 C 1180.38 177.11 1182.10 174.37 1184.90 173.69 C 1190.19 170.76 1199.21 173.96 1198.06 181.00 C 1198.10 185.70 1198.01 190.41 1198.03 195.12 C 1200.49 190.46 1203.14 185.72 1207.15 182.20 C 1211.21 178.78 1215.84 175.99 1220.81 174.08 Z" />
<path fill="#fefffe" d=" M 669.41 202.49 C 673.98 194.67 682.02 189.06 690.91 187.41 C 697.79 186.98 705.27 186.65 711.36 190.48 C 717.34 193.34 721.42 198.81 724.42 204.55 C 727.71 211.54 728.80 219.30 729.53 226.91 C 730.06 232.03 728.68 237.04 728.39 242.13 C 727.39 248.87 724.89 255.37 721.05 261.00 C 717.44 267.03 710.81 270.57 704.22 272.38 C 695.38 274.23 685.51 273.40 678.07 267.87 C 668.42 261.18 664.65 249.14 663.18 238.01 C 662.17 225.97 663.10 213.10 669.41 202.49 Z" />
<path fill="#fefffe" d=" M 811.52 187.52 C 818.60 186.93 826.33 186.48 832.65 190.37 C 844.27 196.26 849.23 209.77 850.36 222.02 C 851.93 230.02 850.40 238.14 849.00 246.04 C 846.73 255.22 842.14 264.85 833.34 269.34 C 823.70 274.64 811.10 274.73 801.53 269.22 C 792.45 263.98 787.50 253.80 785.53 243.85 C 784.02 237.34 784.27 230.62 784.45 224.00 C 785.28 213.41 788.80 202.39 796.87 195.08 C 800.82 191.12 806.16 188.84 811.52 187.52 Z" />
<path fill="#fefffe" d=" M 932.49 187.61 C 940.22 186.28 948.39 187.73 955.08 191.88 C 964.57 197.51 969.53 208.45 971.31 218.96 C 974.12 234.11 971.40 251.18 961.06 263.06 C 950.66 275.33 930.17 276.57 918.23 265.88 C 910.43 259.10 907.64 248.58 906.19 238.74 C 904.98 227.28 905.81 215.28 910.67 204.70 C 914.68 195.95 922.91 189.17 932.49 187.61 Z" />
<path fill="#fefffe" d=" M 1340.52 187.64 C 1349.21 186.09 1358.49 188.18 1365.57 193.47 C 1370.64 196.81 1373.70 202.33 1376.19 207.70 C 1381.54 220.50 1381.95 235.24 1377.53 248.37 C 1374.90 255.93 1370.56 263.16 1363.92 267.84 C 1356.67 272.71 1347.38 274.09 1338.91 272.24 C 1328.55 270.10 1320.49 261.34 1317.31 251.52 C 1312.33 236.23 1312.34 218.84 1319.18 204.13 C 1323.11 195.62 1331.25 189.22 1340.52 187.64 Z" />
<path fill="#fefffe" d=" M 1095.51 233.50 C 1107.68 229.88 1120.50 228.97 1133.14 229.27 C 1132.76 237.32 1134.47 245.77 1131.50 253.48 C 1126.44 264.10 1115.44 271.06 1104.04 272.93 C 1099.14 273.22 1093.89 273.78 1089.32 271.61 C 1087.08 270.60 1084.99 269.31 1082.87 268.10 C 1077.38 261.45 1076.65 251.39 1081.05 244.00 C 1084.50 239.00 1089.67 235.21 1095.51 233.50 Z" />
<path fill="#b5bd84" d=" M 210.52 292.73 C 216.57 295.59 223.24 294.11 229.37 292.40 C 228.27 295.24 227.55 298.30 225.79 300.83 C 222.98 302.15 219.53 301.95 217.05 304.00 C 211.41 308.37 207.72 315.51 207.63 322.64 C 208.90 324.49 209.89 326.51 210.79 328.57 C 209.66 329.96 208.54 331.37 207.41 332.78 C 207.43 338.32 207.84 343.85 208.25 349.37 C 206.77 351.75 205.06 354.00 203.91 356.59 C 203.45 356.54 202.52 356.43 202.06 356.38 C 203.50 352.98 205.77 349.69 205.66 345.86 C 205.73 340.86 205.36 335.87 205.55 330.87 C 206.74 329.32 207.59 327.55 208.07 325.66 C 207.29 325.49 205.73 325.14 204.95 324.97 C 196.50 330.30 197.03 342.15 189.34 348.18 C 186.09 350.53 183.47 353.62 181.87 357.31 C 178.75 358.01 175.58 358.44 172.48 359.19 C 169.63 359.81 167.68 362.14 165.56 363.95 C 165.52 364.65 165.46 366.05 165.43 366.75 C 164.82 366.66 163.60 366.47 162.99 366.38 C 164.33 362.83 166.66 359.43 170.21 357.82 C 173.71 356.75 177.35 356.26 180.89 355.34 C 182.35 349.35 188.30 346.76 192.32 342.74 C 189.17 342.54 186.02 342.42 182.87 342.33 C 181.79 344.13 180.70 345.92 179.62 347.72 C 176.82 347.42 173.48 348.28 171.21 346.20 C 171.07 343.83 173.71 345.41 175.05 345.24 C 178.57 346.43 179.85 342.30 182.13 340.59 C 185.61 340.08 189.14 340.62 192.63 340.79 C 194.39 337.33 194.81 333.48 194.67 329.65 C 198.20 324.72 202.33 319.88 203.95 313.92 C 204.06 309.76 203.27 305.32 205.76 301.64 C 207.30 299.78 205.98 297.67 205.31 295.76 C 207.05 294.75 208.78 293.74 210.52 292.73 Z" />
<path fill="#fefffe" d=" M 657.92 299.22 C 658.98 303.13 660.20 307.01 660.32 311.10 C 661.77 319.32 666.45 326.39 670.00 333.79 C 664.05 330.33 658.01 325.85 655.94 318.95 C 653.93 314.12 654.86 308.88 655.83 303.93 C 656.53 302.37 657.22 300.79 657.92 299.22 Z" />
<path fill="#b5bd84" d=" M 186.28 320.87 C 187.70 322.44 189.12 324.00 190.57 325.55 C 192.23 325.53 193.89 325.53 195.56 325.55 C 193.93 326.94 192.18 329.58 189.70 328.42 C 188.46 327.20 187.47 325.76 186.40 324.41 C 186.36 323.22 186.32 322.04 186.28 320.87 Z" />
<path fill="#b5bd84" d=" M 969.84 326.48 C 970.87 326.28 971.92 326.12 972.99 326.01 C 976.29 330.25 977.87 335.49 978.89 340.70 C 977.62 344.93 976.83 349.52 973.99 353.04 C 970.91 356.94 966.91 360.07 964.43 364.43 C 962.57 367.74 959.26 369.68 956.33 371.89 C 953.19 372.00 950.03 371.86 947.00 371.04 C 950.68 367.74 955.13 365.23 957.94 361.03 C 953.00 363.70 948.06 366.62 942.49 367.74 C 939.81 368.54 937.32 366.91 934.86 366.11 C 932.06 369.68 929.13 373.21 927.37 377.45 C 935.72 377.08 944.74 376.38 952.25 380.80 C 957.82 384.08 960.01 390.84 960.13 396.99 C 960.46 408.99 960.01 421.00 960.32 433.00 C 960.34 436.75 961.70 440.40 961.42 444.15 C 959.35 447.27 954.33 447.61 951.49 445.47 C 950.10 443.32 950.01 440.66 949.52 438.21 C 945.21 442.98 939.37 446.35 932.98 447.24 C 925.63 448.28 917.29 447.70 911.52 442.51 C 905.57 437.29 904.55 428.38 906.45 421.07 C 908.12 414.37 913.84 409.48 920.10 407.08 C 929.46 403.51 939.62 403.43 949.50 403.16 C 949.57 398.21 950.20 391.80 945.40 388.71 C 939.67 385.60 932.26 385.76 926.41 388.50 C 922.50 390.30 921.52 394.88 918.78 397.82 C 914.97 399.99 907.95 397.25 909.29 392.14 C 911.05 386.53 915.79 382.03 921.24 379.95 C 922.38 375.59 923.66 371.16 926.37 367.48 C 928.61 363.94 932.25 361.71 935.62 359.37 C 935.70 353.19 939.73 348.06 944.48 344.53 C 948.50 341.99 953.38 341.41 958.05 341.45 C 961.71 341.69 964.69 339.27 967.67 337.53 C 968.69 333.91 969.55 330.24 969.84 326.48 Z" />
<path fill="#b5bd84" d=" M 981.19 351.00 C 984.70 349.59 989.80 351.59 989.18 356.00 C 989.24 384.67 989.34 413.36 989.13 442.03 C 989.33 447.17 981.82 448.19 979.00 444.91 C 977.86 443.19 978.03 441.01 977.91 439.05 C 977.95 414.71 977.93 390.37 977.92 366.03 C 977.97 362.03 977.62 357.99 978.32 354.04 C 978.50 352.52 979.82 351.49 981.19 351.00 Z" />
<path fill="#b5bd84" d=" M 563.93 364.97 C 560.68 359.06 569.14 351.27 574.71 355.24 C 577.85 357.22 580.16 361.56 578.17 365.09 C 577.13 368.21 573.75 369.16 571.05 370.30 C 568.33 369.12 565.07 368.02 563.93 364.97 Z" />
<path fill="#b5bd84" d=" M 723.02 355.92 C 725.27 354.95 727.63 354.24 730.05 353.76 C 731.41 355.67 733.69 357.36 733.33 360.00 C 733.30 386.34 733.30 412.69 733.33 439.04 C 733.73 441.75 731.43 443.51 729.97 445.43 C 727.53 444.96 725.17 444.17 722.95 443.08 C 723.18 414.03 723.04 384.97 723.02 355.92 Z" />
<path fill="#b5bd84" d=" M 1308.29 355.24 C 1312.69 352.50 1319.16 355.71 1319.48 360.93 C 1320.26 366.30 1314.21 370.81 1309.26 368.64 C 1303.63 366.75 1302.97 357.91 1308.29 355.24 Z" />
<path fill="#b5bd84" d=" M 756.03 367.93 C 756.03 364.87 758.89 361.93 762.04 362.41 C 764.43 362.39 766.03 364.73 766.06 366.94 C 766.36 371.55 766.08 376.19 766.15 380.82 C 771.46 380.95 776.80 380.49 782.11 381.00 C 783.61 382.10 784.67 383.67 785.89 385.07 C 784.56 386.92 783.50 389.53 780.96 389.90 C 776.04 390.34 771.08 389.95 766.15 390.06 C 766.14 401.70 766.19 413.35 766.11 424.99 C 766.04 428.02 766.59 431.00 767.21 433.95 C 769.04 434.95 770.81 436.49 773.00 436.52 C 776.14 436.12 778.90 434.31 782.00 433.71 C 783.20 434.23 784.33 434.93 785.48 435.58 C 785.40 437.78 785.37 439.98 785.35 442.18 C 778.81 446.12 770.21 447.51 763.32 443.61 C 757.80 441.11 756.34 434.51 756.00 429.03 C 755.96 416.05 756.02 403.07 756.00 390.09 C 751.91 390.20 747.81 390.09 743.83 389.11 C 743.18 386.68 743.19 384.17 743.77 381.73 C 747.76 380.71 751.90 380.67 756.00 380.81 C 756.05 376.52 755.83 372.22 756.03 367.93 Z" />
<path fill="#b5bd84" d=" M 1095.46 378.52 C 1103.11 377.40 1111.68 378.11 1118.03 382.94 C 1121.05 385.45 1123.92 388.90 1124.11 392.98 C 1123.49 396.64 1118.99 397.37 1115.98 396.44 C 1113.46 393.74 1112.54 389.48 1108.84 387.99 C 1103.74 385.73 1097.48 385.95 1092.57 388.58 C 1087.55 391.06 1087.79 399.93 1093.35 401.66 C 1101.83 405.09 1111.58 404.76 1119.57 409.57 C 1126.84 413.64 1128.08 423.81 1124.99 430.91 C 1121.52 438.46 1112.81 441.63 1105.02 442.05 C 1096.72 442.51 1087.18 441.16 1081.47 434.50 C 1079.08 431.59 1076.72 427.88 1077.44 423.95 C 1078.81 420.90 1083.45 419.98 1086.06 422.00 C 1088.32 424.77 1089.05 428.74 1092.17 430.82 C 1096.17 433.48 1101.29 433.68 1105.94 433.10 C 1109.91 432.60 1114.35 430.85 1116.00 426.88 C 1117.76 422.94 1115.67 417.97 1111.71 416.34 C 1103.13 412.55 1092.97 413.30 1084.97 408.01 C 1077.90 403.26 1076.74 392.40 1081.76 385.77 C 1084.92 381.39 1090.32 379.40 1095.46 378.52 Z" />
<path fill="#b5bd84" d=" M 1143.20 387.14 C 1149.78 378.80 1161.84 376.24 1171.74 379.24 C 1179.60 381.57 1185.42 388.45 1187.84 396.11 C 1189.06 400.20 1190.36 404.66 1189.17 408.90 C 1188.41 411.57 1185.38 412.04 1183.02 412.00 C 1170.64 412.04 1158.25 411.96 1145.87 412.01 C 1146.36 418.27 1147.73 425.05 1152.51 429.52 C 1157.93 434.27 1166.44 435.21 1172.77 431.75 C 1176.26 429.88 1177.78 426.05 1180.04 423.03 C 1182.46 419.26 1190.29 422.23 1188.64 426.86 C 1185.67 434.90 1177.98 440.85 1169.46 441.81 C 1160.89 443.02 1151.34 441.24 1145.01 434.99 C 1138.86 429.08 1136.41 420.34 1136.18 412.03 C 1135.94 403.33 1137.58 394.06 1143.20 387.14 Z" />
<path fill="#b5bd84" d=" M 1224.70 378.76 C 1229.07 377.85 1234.18 377.32 1238.11 379.88 C 1239.63 382.55 1238.95 386.61 1236.35 388.40 C 1232.59 389.23 1228.63 387.54 1224.90 388.70 C 1219.95 390.23 1216.43 394.58 1214.40 399.16 C 1212.10 404.79 1212.85 411.02 1212.75 416.95 C 1212.64 423.67 1212.99 430.40 1212.64 437.11 C 1212.67 442.67 1202.60 442.61 1202.65 437.06 C 1202.40 419.38 1202.57 401.67 1202.57 383.99 C 1201.74 378.66 1209.60 377.40 1212.35 381.03 C 1212.94 383.55 1212.67 386.16 1212.58 388.72 C 1215.23 384.08 1219.30 379.90 1224.70 378.76 Z" />
<path fill="#b5bd84" d=" M 1351.46 378.56 C 1358.78 377.32 1366.96 378.23 1373.01 382.87 C 1376.47 385.75 1379.37 389.61 1380.49 394.03 C 1381.10 398.05 1375.48 400.41 1372.44 398.42 C 1369.76 395.44 1369.00 390.86 1365.34 388.75 C 1358.98 385.02 1349.88 386.45 1345.27 392.32 C 1341.77 396.74 1340.36 402.48 1340.26 408.04 C 1340.01 414.45 1340.57 421.29 1344.26 426.76 C 1348.41 433.49 1357.96 435.11 1364.83 431.96 C 1369.08 430.01 1370.08 425.09 1372.59 421.61 C 1375.48 418.88 1382.70 421.52 1381.12 425.96 C 1379.03 432.69 1373.84 438.73 1366.93 440.72 C 1357.46 443.64 1346.06 442.34 1338.70 435.27 C 1332.25 428.99 1329.75 419.72 1329.60 410.96 C 1329.51 402.50 1331.43 393.59 1336.92 386.94 C 1340.53 382.48 1345.81 379.53 1351.46 378.56 Z" />
<path fill="#b5bd84" d=" M 1396.22 388.23 C 1405.15 375.47 1426.59 374.36 1436.49 386.54 C 1441.01 392.26 1443.70 399.66 1443.48 406.98 C 1443.54 409.91 1440.87 412.08 1438.06 411.95 C 1425.31 412.11 1412.56 411.93 1399.81 412.00 C 1400.27 417.19 1401.03 422.64 1404.17 426.97 C 1408.82 433.77 1418.79 435.56 1426.00 432.09 C 1429.89 430.35 1431.49 426.18 1433.92 422.99 C 1436.40 419.22 1444.28 422.40 1442.47 426.97 C 1440.02 433.38 1434.62 438.33 1428.27 440.79 C 1430.13 444.36 1430.06 449.80 1434.50 451.30 C 1437.07 452.67 1441.05 452.69 1442.14 455.90 C 1442.97 458.35 1442.86 461.00 1443.13 463.57 C 1446.78 463.99 1450.38 464.74 1453.96 465.64 C 1455.92 464.54 1457.90 463.47 1459.91 462.44 C 1463.41 465.14 1467.53 466.72 1471.74 467.95 C 1471.21 470.10 1468.46 469.24 1466.97 468.95 C 1464.44 468.02 1462.33 466.25 1459.86 465.22 C 1458.04 465.49 1456.69 466.95 1455.17 467.85 C 1456.72 471.19 1459.84 474.33 1458.64 478.31 C 1454.37 477.70 1451.36 474.66 1450.21 470.62 C 1446.54 469.07 1442.60 468.47 1438.66 468.27 C 1438.12 464.85 1437.68 461.41 1437.13 457.99 C 1435.87 459.30 1434.61 460.62 1433.38 461.94 C 1434.60 467.23 1435.69 472.69 1438.58 477.38 C 1438.60 478.13 1438.65 479.62 1438.67 480.36 C 1439.94 480.93 1441.20 481.50 1442.51 482.08 C 1442.06 483.36 1441.62 484.65 1441.18 485.94 C 1440.72 485.39 1439.79 484.30 1439.32 483.76 C 1437.94 483.46 1436.58 483.17 1435.24 482.87 C 1435.61 486.26 1436.86 489.42 1438.87 492.17 C 1439.89 493.16 1438.99 494.41 1438.73 495.52 C 1435.79 492.03 1432.91 487.84 1433.23 483.06 C 1433.74 481.33 1435.67 480.46 1436.85 479.18 C 1433.92 473.51 1431.65 467.39 1431.30 460.98 C 1432.51 459.85 1433.76 458.74 1435.00 457.61 C 1431.64 456.29 1428.47 454.53 1425.85 452.04 C 1425.50 456.77 1422.07 460.12 1419.90 464.04 C 1421.34 466.25 1424.12 466.37 1426.47 466.87 C 1426.45 470.35 1426.88 473.90 1426.23 477.35 C 1425.77 477.75 1424.84 478.56 1424.38 478.96 C 1424.26 475.93 1424.46 472.89 1424.16 469.88 C 1423.20 468.88 1421.91 468.34 1420.77 467.64 C 1419.33 470.97 1417.62 474.18 1415.66 477.22 C 1416.85 477.85 1418.05 478.48 1419.28 479.11 C 1419.30 482.30 1419.48 485.54 1418.93 488.71 C 1418.51 488.73 1417.66 488.78 1417.23 488.80 C 1416.74 484.94 1417.29 480.55 1413.77 477.93 C 1413.65 474.33 1413.67 470.72 1413.91 467.13 C 1414.95 468.55 1415.56 470.21 1416.22 471.86 C 1416.79 470.46 1417.39 469.08 1418.00 467.69 C 1416.63 467.34 1415.28 467.00 1413.94 466.67 C 1414.15 461.71 1417.93 458.21 1419.54 453.78 C 1420.26 447.64 1412.69 446.61 1410.76 441.74 C 1406.37 439.87 1401.67 438.18 1398.41 434.52 C 1392.03 428.12 1389.96 418.74 1389.88 409.99 C 1390.13 402.39 1391.60 394.46 1396.22 388.23 Z" />
<path fill="#b5bd84" d=" M 1469.48 378.59 C 1478.02 377.24 1488.00 378.22 1494.37 384.66 C 1496.56 387.19 1499.17 390.46 1498.27 394.03 C 1496.69 396.82 1492.64 397.59 1490.00 396.04 C 1487.80 393.52 1486.90 389.77 1483.69 388.24 C 1478.45 385.65 1471.81 385.87 1466.71 388.71 C 1461.90 391.26 1462.11 399.65 1467.43 401.49 C 1476.25 405.28 1486.66 404.62 1494.81 410.14 C 1500.96 414.10 1501.82 422.55 1500.09 429.07 C 1498.07 435.95 1491.24 440.04 1484.56 441.34 C 1476.54 442.88 1467.75 442.43 1460.51 438.40 C 1455.98 435.77 1452.57 431.13 1451.67 425.96 C 1450.98 421.54 1457.16 419.66 1460.26 421.81 C 1462.42 424.38 1463.19 427.94 1465.79 430.18 C 1469.14 433.01 1473.76 433.50 1477.98 433.35 C 1481.94 433.12 1486.29 432.15 1489.03 429.04 C 1492.21 425.51 1491.32 419.19 1487.05 416.92 C 1478.73 412.51 1468.56 413.50 1460.38 408.66 C 1451.45 403.85 1450.75 389.61 1458.45 383.38 C 1461.51 380.66 1465.49 379.27 1469.48 378.59 Z" />
<path fill="#b5bd84" d=" M 393.35 381.30 C 402.48 377.83 412.84 378.17 421.81 382.00 C 423.99 384.26 426.72 386.23 427.95 389.23 C 429.67 393.96 429.20 399.08 429.24 404.02 C 429.24 412.35 429.19 420.68 429.22 429.01 C 429.12 434.11 431.68 439.10 430.26 444.18 C 427.84 444.58 425.42 444.94 423.00 445.29 C 421.14 442.74 419.95 439.79 419.62 436.66 C 415.33 442.01 408.68 444.66 402.09 445.79 C 394.72 446.55 386.15 444.71 381.71 438.26 C 378.24 433.62 378.59 427.53 379.06 422.07 C 380.14 416.49 383.87 411.45 389.07 409.06 C 398.26 404.77 408.63 404.12 418.63 404.57 C 418.98 404.19 419.69 403.43 420.04 403.05 C 420.06 398.70 420.12 393.65 416.72 390.42 C 410.93 386.43 402.96 386.50 397.05 390.21 C 394.07 391.85 392.93 395.23 391.70 398.17 C 388.93 399.52 385.95 398.87 383.15 398.05 C 382.51 396.66 381.86 395.28 381.22 393.91 C 383.81 388.61 387.78 383.63 393.35 381.30 Z" />
<path fill="#b5bd84" d=" M 594.93 390.96 C 602.87 377.71 622.66 375.43 634.77 384.11 C 638.88 387.62 641.92 392.61 642.41 398.08 C 639.90 399.37 636.79 402.38 634.05 399.93 C 631.03 396.07 629.41 390.34 624.16 388.83 C 619.32 387.79 613.69 387.46 609.43 390.43 C 604.00 393.45 601.75 399.81 600.63 405.57 C 598.79 414.22 600.50 423.45 605.13 430.96 C 607.65 434.30 611.77 436.46 615.97 436.48 C 619.64 436.45 623.75 437.11 626.95 434.86 C 630.95 432.63 631.79 427.73 634.36 424.32 C 637.53 422.47 644.51 424.24 642.92 428.99 C 641.13 434.78 636.94 439.77 631.73 442.79 C 621.84 447.65 609.05 446.91 600.34 439.93 C 594.08 435.21 591.40 427.44 590.05 420.02 C 589.16 410.17 589.50 399.58 594.93 390.96 Z" />
<path fill="#b5bd84" d=" M 1243.18 383.96 C 1242.32 378.61 1251.68 376.92 1253.07 382.05 C 1256.55 390.70 1259.37 399.61 1262.72 408.31 C 1265.61 415.70 1268.03 423.28 1269.90 430.99 C 1273.11 419.02 1277.40 407.40 1281.76 395.81 C 1283.67 391.01 1284.98 385.96 1287.26 381.32 C 1289.38 376.61 1298.59 379.57 1296.61 384.84 C 1290.72 400.99 1284.09 416.90 1278.06 433.01 C 1277.22 435.07 1276.51 437.26 1275.12 439.04 C 1273.03 441.51 1269.16 441.85 1266.38 440.45 C 1264.37 439.38 1263.53 437.12 1262.65 435.17 C 1257.51 422.17 1252.56 409.10 1247.40 396.11 C 1245.95 392.08 1243.80 388.24 1243.18 383.96 Z" />
<path fill="#b5bd84" d=" M 1309.32 379.48 C 1311.58 378.54 1314.57 378.80 1316.27 380.71 C 1317.40 382.93 1317.13 385.56 1317.24 387.99 C 1317.14 403.31 1317.21 418.64 1317.22 433.97 C 1317.05 436.35 1317.31 439.76 1314.53 440.75 C 1311.96 441.88 1307.65 441.25 1307.18 437.97 C 1306.39 433.69 1306.85 429.31 1306.77 424.99 C 1306.79 411.99 1306.76 398.99 1306.76 385.99 C 1306.93 383.71 1306.71 380.47 1309.32 379.48 Z" />
<path fill="#b5bd84" d=" M 449.01 391.07 C 455.82 380.53 471.19 376.72 482.14 382.82 C 485.69 384.90 488.26 388.23 490.35 391.70 C 490.32 388.27 489.46 384.51 491.19 381.36 C 493.28 379.36 497.61 379.00 499.14 381.85 C 500.48 384.69 500.60 387.91 500.62 391.00 C 500.56 403.65 500.54 416.31 500.61 428.96 C 500.91 434.68 499.65 440.31 499.47 446.02 C 498.93 454.62 494.14 463.38 485.96 466.86 C 476.40 470.93 465.20 470.42 455.67 466.50 C 451.89 465.02 449.20 461.89 446.41 459.10 C 446.39 457.76 446.38 456.44 446.37 455.12 C 446.85 454.66 447.79 453.76 448.26 453.31 C 449.35 452.96 450.46 452.63 451.56 452.30 C 452.61 452.61 453.66 452.93 454.72 453.26 C 457.71 456.58 461.24 459.70 465.82 460.43 C 471.20 462.09 476.70 460.45 481.92 459.06 C 484.50 456.34 487.83 453.90 488.65 450.03 C 490.43 444.40 490.10 438.48 490.56 432.68 C 487.11 437.24 482.91 441.84 477.07 443.09 C 472.29 444.76 467.22 443.86 462.41 442.85 C 455.71 440.09 449.30 435.56 446.54 428.60 C 442.05 416.58 442.22 402.21 449.01 391.07 Z" />
<path fill="#b5bd84" d=" M 518.50 381.66 C 520.74 380.73 523.24 379.01 525.69 380.33 C 529.07 381.98 528.79 386.26 529.26 389.42 C 528.83 389.79 527.97 390.53 527.55 390.90 C 527.71 391.14 528.04 391.62 528.20 391.86 C 531.89 382.81 542.89 378.04 552.13 380.58 C 554.49 380.77 555.45 383.04 556.60 384.76 C 555.46 387.11 554.84 390.44 551.75 390.89 C 547.93 390.83 543.80 388.90 540.25 391.16 C 533.04 394.33 528.56 402.23 528.80 410.00 C 528.90 420.53 528.81 431.07 528.88 441.61 C 527.71 442.81 526.55 444.03 525.42 445.28 C 523.05 444.88 520.74 444.22 518.53 443.28 C 518.59 422.74 518.64 402.20 518.50 381.66 Z" />
<path fill="#b5bd84" d=" M 566.79 380.73 C 569.39 380.28 572.68 378.87 574.81 381.19 C 576.43 382.67 576.19 385.02 576.28 387.01 C 576.19 400.35 576.26 413.68 576.23 427.02 C 576.16 432.76 576.74 438.59 575.38 444.24 C 572.57 445.00 569.67 444.98 566.90 444.13 C 566.30 441.46 565.91 438.74 565.95 436.01 C 566.05 423.34 565.98 410.67 566.00 398.01 C 566.06 392.24 565.56 386.41 566.79 380.73 Z" />
<path fill="#b5bd84" d=" M 655.47 381.64 C 657.64 380.80 660.09 379.00 662.43 380.39 C 665.08 381.39 666.07 384.39 665.91 387.01 C 665.87 398.99 665.92 410.97 665.81 422.95 C 665.75 427.40 667.13 432.35 671.11 434.85 C 675.51 437.50 681.29 437.02 685.70 434.64 C 692.83 431.03 696.91 422.85 696.67 415.01 C 696.58 404.20 696.72 393.38 696.56 382.57 C 699.54 380.72 702.95 380.54 706.22 381.74 C 706.61 384.12 706.92 386.53 706.94 388.96 C 706.90 406.50 706.84 424.04 706.96 441.58 C 705.78 442.80 704.61 444.03 703.46 445.29 C 701.07 444.89 698.74 444.21 696.52 443.25 C 696.61 440.12 696.67 437.00 696.80 433.87 C 694.49 436.83 692.26 439.99 689.06 442.07 C 682.39 446.44 673.55 447.19 666.29 443.82 C 659.48 441.35 655.63 433.93 655.52 426.98 C 655.50 411.87 655.62 396.76 655.47 381.64 Z" />
<path fill="#b5bd84" d=" M 795.21 383.95 C 794.85 380.41 799.87 378.85 802.45 380.55 C 804.92 381.64 805.68 384.48 805.54 386.97 C 805.49 398.97 805.56 410.97 805.45 422.96 C 805.34 426.81 806.35 430.99 809.33 433.64 C 813.16 437.23 819.15 437.28 823.80 435.41 C 831.19 432.51 835.84 424.74 836.26 417.00 C 836.57 405.78 835.98 394.54 836.47 383.34 C 838.27 379.46 846.57 379.85 846.50 385.00 C 846.73 404.00 846.40 423.02 846.64 442.03 C 844.91 443.23 843.40 445.48 841.01 445.03 C 839.31 444.68 837.78 443.83 836.21 443.14 C 836.28 440.12 836.31 437.09 836.34 434.07 C 834.82 435.98 833.32 437.90 831.87 439.86 C 828.88 442.02 825.78 444.21 822.11 445.02 C 818.31 446.22 814.25 445.57 810.40 446.34 C 807.60 447.60 805.13 449.45 802.55 451.08 C 800.71 455.42 796.98 458.75 796.19 463.56 C 796.74 463.97 797.84 464.80 798.40 465.22 C 798.36 468.36 796.96 471.11 794.70 473.23 C 794.19 478.62 793.16 483.96 792.29 489.29 C 789.93 491.84 787.34 494.17 784.88 496.62 C 783.30 493.19 786.69 490.94 788.18 488.31 C 790.17 482.36 790.88 476.10 791.68 469.91 C 792.94 468.92 794.20 467.93 795.47 466.94 C 795.09 466.40 794.34 465.31 793.96 464.77 C 788.98 466.69 785.18 470.54 783.03 475.39 C 780.15 478.42 778.18 482.57 774.18 484.32 C 770.15 486.14 766.89 489.16 763.94 492.38 C 760.22 492.46 756.45 492.03 752.79 492.76 C 749.22 493.61 747.11 496.76 744.92 499.41 C 744.63 498.12 744.08 496.86 744.14 495.53 C 746.76 492.29 750.55 489.17 754.97 489.45 C 757.48 489.37 760.03 489.63 762.54 489.23 C 764.24 487.77 765.58 485.93 767.12 484.30 C 770.17 483.01 773.10 481.47 776.10 480.07 C 773.58 479.43 771.10 478.65 768.68 477.74 C 767.00 479.32 765.36 480.94 763.76 482.60 C 759.98 482.36 756.23 480.94 754.14 477.62 C 757.13 477.68 760.10 478.09 763.06 478.54 C 764.71 476.95 766.39 474.64 768.98 474.87 C 771.99 475.21 774.78 476.54 777.65 477.47 C 779.74 474.26 781.23 470.69 781.82 466.90 C 785.83 462.23 791.32 458.55 793.77 452.73 C 794.29 448.75 794.70 444.62 797.24 441.31 C 798.16 440.79 799.10 440.27 800.03 439.75 C 797.42 435.98 794.93 431.77 795.19 427.01 C 795.25 412.66 795.18 398.30 795.21 383.95 Z" />
<path fill="#b5bd84" d=" M 864.57 381.61 C 866.90 380.52 869.38 379.87 871.94 379.59 C 872.91 381.09 873.94 382.55 874.74 384.18 C 875.41 386.82 874.65 389.55 874.24 392.18 C 877.55 383.05 888.36 378.33 897.52 380.36 C 900.06 380.50 901.44 382.56 902.49 384.62 C 901.98 386.20 901.50 387.79 901.07 389.40 C 897.36 392.14 893.05 389.63 888.98 390.15 C 880.45 392.51 874.56 401.23 874.88 409.96 C 874.99 420.49 874.88 431.03 874.97 441.57 C 873.79 442.79 872.62 444.03 871.48 445.29 C 869.10 444.91 866.79 444.21 864.59 443.24 C 864.68 422.70 864.72 402.15 864.57 381.61 Z" />
<path fill="#fefffe" d=" M 1151.41 391.45 C 1157.15 384.71 1169.03 384.32 1174.84 391.17 C 1177.89 394.57 1178.91 399.17 1179.99 403.48 C 1168.73 404.00 1157.43 403.77 1146.16 403.62 C 1147.37 399.38 1148.37 394.81 1151.41 391.45 Z" />
<path fill="#fefffe" d=" M 1405.31 391.39 C 1410.46 385.42 1420.48 384.46 1426.69 389.28 C 1431.11 392.67 1432.64 398.30 1433.84 403.48 C 1422.58 403.99 1411.30 403.79 1400.04 403.60 C 1401.25 399.35 1402.25 394.76 1405.31 391.39 Z" />
<path fill="#fefffe" d=" M 469.49 388.60 C 473.69 387.73 478.11 389.16 481.70 391.36 C 488.19 395.94 490.64 404.33 490.25 411.97 C 490.61 418.97 488.53 426.39 483.27 431.27 C 479.46 435.63 473.08 436.38 467.70 435.25 C 460.17 432.91 455.22 425.48 454.18 417.90 C 453.19 409.62 454.11 400.39 459.77 393.85 C 462.14 390.85 465.82 389.32 469.49 388.60 Z" />
<path fill="#fefffe" d=" M 402.00 413.91 C 407.94 412.85 413.98 412.50 419.98 411.85 C 419.92 415.52 420.24 419.24 419.68 422.89 C 417.89 430.44 410.62 435.87 403.08 436.68 C 399.01 437.25 394.35 436.78 391.30 433.75 C 388.46 431.13 388.72 426.83 389.40 423.37 C 390.82 417.70 396.75 414.95 402.00 413.91 Z" />
<path fill="#fefffe" d=" M 927.60 414.64 C 934.71 412.50 942.21 412.25 949.58 412.00 C 949.38 417.01 950.30 422.36 948.05 427.04 C 944.37 433.88 936.61 437.98 928.97 438.14 C 925.32 438.10 921.35 437.02 919.01 434.06 C 916.15 430.47 916.34 425.22 918.36 421.29 C 920.18 417.75 923.96 415.81 927.60 414.64 Z" />
<path fill="#b5bd84" d=" M 1004.28 416.42 C 1006.10 416.39 1007.92 416.46 1009.76 416.63 C 1007.95 417.66 1005.97 417.64 1004.28 416.42 Z" />
<path fill="#b5bd84" d=" M 775.19 456.24 C 776.64 457.87 777.76 459.75 778.88 461.62 C 780.78 462.08 782.85 462.41 784.23 463.97 C 782.14 465.05 779.87 466.50 777.42 465.87 C 776.08 464.14 775.09 462.19 773.93 460.36 C 774.32 458.97 774.71 457.59 775.19 456.24 Z" />
<path fill="#b5bd84" d=" M 1446.02 482.34 C 1443.29 479.91 1438.05 477.37 1439.41 473.04 C 1442.65 475.28 1445.20 478.42 1446.02 482.34 Z" />
</svg>
